# xmcd
#
# Track frame offsets: 
#        150
#        5634
#        21908
#        34714
#        57249
#        71700
#        84510
#        106205
#        124103
#        146100
#        156060
#        169477
#        185038
#        201153
#
# Disc length: 2821 seconds
#
# Revision: 1
# Processed by: cddbd v1.5.2PL0 Copyright (c) Steve Scherf et al.
# Submitted via: ExactAudioCopy v1.0b6
#
DISCID=c80b030e
DTITLE=Dr. Dixie Jazz Band - Jazz, Doctors And Special Guests
DYEAR=1996
DGENRE=Jazz
TTITLE0=Some Of These Days (1962)
TTITLE1=In A Sentimental Mood (1988)
TTITLE2=Northwest Passage (1989)
TTITLE3=Medley: Creole Blues - A Blues Serenade - Mighty Like The Blue
TTITLE3=s
TTITLE4=Blues My Naughty Sweety (1987)
TTITLE5=All Too Soon (1982)
TTITLE6=Doggin' Around (1987)
TTITLE7=Pennies From Heaven (1987)
TTITLE8=Old Man River (voc. Ruggero Raimondi) (1988)
TTITLE9=Big Butter And Egg Man From West (1982)
TTITLE10=Beale Street Blues (1985)
TTITLE11=Jeepres Creepers (1988)
TTITLE12=Easy Living (1983)
TTITLE13=A Nice Summer (1986)
EXTD=
EXTT0=
EXTT1=
EXTT2=
EXTT3=
EXTT4=
EXTT5=
EXTT6=
EXTT7=
EXTT8=
EXTT9=
EXTT10=
EXTT11=
EXTT12=
EXTT13=
PLAYORDER=
